<svg id="discord" viewBox="0 0 128 128" xmlns="http://www.w3.org/2000/svg">
    <path stroke="white" stroke-width="4" d="m45.23 57.2c-6.16 0-11.17 5.6-11.17 12.48s5 12.47 11.17 12.47 11.16-5.59 11.16-12.47-5.01-12.48-11.16-12.48zm0 21c-4 0-7.17-3.8-7.17-8.47s3.21-8.48 7.17-8.48 7.16 3.8 7.16 8.48-3.21 8.42-7.16 8.42z" />
    <path stroke="white" stroke-width="4" d="m121.83 59.58a156.78 156.78 0 0 0 -11.52-31 2.1 2.1 0 0 0 -.71-.77 87.08 87.08 0 0 0 -15.23-7.17c-9.82-3.57-14.46-3.64-14.65-3.64a2 2 0 0 0 -2 1.72l-.6 4.17a133.14 133.14 0 0 0 -26.28 0l-.6-4.17a2 2 0 0 0 -2-1.72c-.19 0-4.83 0-14.65 3.61a87.08 87.08 0 0 0 -15.19 7.2 2.1 2.1 0 0 0 -.71.77 156.72 156.72 0 0 0 -11.52 31c-5.17 20.88-6.17 31.33-6.17 31.76a2 2 0 0 0 .49 1.5 55.2 55.2 0 0 0 18.2 12.74 76.32 76.32 0 0 0 19.79 5.42 2 2 0 0 0 1.92-1l5.4-9.25a105.08 105.08 0 0 0 18.2 1.49 105.08 105.08 0 0 0 18.2-1.51l5.4 9.27a2 2 0 0 0 1.72 1h.2a76.32 76.32 0 0 0 19.78-5.38 55.2 55.2 0 0 0 18.2-12.74 2 2 0 0 0 .49-1.5c.01-.47-.94-10.92-6.16-31.8zm-14.06 42.31a76.76 76.76 0 0 1 -17.39 4.92l-4.08-7c4.68-1.24 14.42-4.46 21.83-11.2a2 2 0 1 0 -2.69-3c-9 8.23-22.46 10.84-22.6 10.87h-.06a96.59 96.59 0 0 1 -18.78 1.76 96.59 96.59 0 0 1 -18.78-1.7h-.06c-.14 0-13.55-2.64-22.6-10.87a2 2 0 1 0 -2.69 3c7.41 6.74 17.15 10 21.83 11.2l-4.08 7a76.08 76.08 0 0 1 -17.39-4.92 52.24 52.24 0 0 1 -16.15-11.15c.33-2.91 1.68-13.07 6-30.24a156.25 156.25 0 0 1 10.92-29.64 88.17 88.17 0 0 1 14-6.52 61.35 61.35 0 0 1 11.58-3.19l.35 2.39c-4 1-13.85 3.86-21.65 9.53a2 2 0 1 0 2.36 3.23c8.82-6.41 21-9.06 21.86-9.25a118.4 118.4 0 0 1 14.5-.84 117.64 117.64 0 0 1 14.51.84c.91.19 13 2.83 21.86 9.25a2 2 0 1 0 2.36-3.23c-7.8-5.67-17.61-8.52-21.65-9.53l.35-2.39a61.75 61.75 0 0 1 11.57 3.19 88.17 88.17 0 0 1 14 6.52 156.25 156.25 0 0 1 11 29.64c4.29 17.17 5.64 27.33 6 30.24a52.24 52.24 0 0 1 -16.23 11.09z" />
    <path stroke="white" stroke-width="4" d="m82.77 57.2c-6.15 0-11.16 5.6-11.16 12.48s5 12.47 11.16 12.47 11.17-5.59 11.17-12.47-5.01-12.48-11.17-12.48zm0 21c-4 0-7.16-3.8-7.16-8.47s3.21-8.48 7.16-8.48 7.17 3.8 7.17 8.48-3.21 8.42-7.17 8.42z" />
</svg>
